<svg width="162" height="160" xmlns="http://www.w3.org/2000/svg" xmlns:xlink="http://www.w3.org/1999/xlink"><defs><path d="M91 167.984c31.2 0 57.499-20.922 65.547-49.46 1.65-5.853 27.25-25.152 27.25-31.53C183.796 49.511 128.6.022 90.998.022 53.4.023-24.94 151.86 8.188 167.984c19.786 9.63 32.766-21.71 35.405-19.156 12.258 11.857 28.977 19.156 47.406 19.156z" id="a"/></defs><g transform="translate(-23 -8)" fill="none" fill-rule="evenodd"><ellipse fill="#CDECEE" cx="91" cy="100.5" rx="68" ry="67.5"/><g transform="translate(155.055 22.1)"><ellipse fill="#302F30" fill-rule="nonzero" cx="12.353" cy="12.325" rx="12.353" ry="12.325"/><ellipse fill="#000" fill-rule="nonzero" cx="12.353" cy="12.325" rx="7.242" ry="7.225"/><text opacity=".5" font-family="ProximaNova-Bold, Proxima Nova" font-size="6" font-weight="bold" fill="#FFF"><tspan x="6.816" y="13.895">1 </tspan> <tspan x="6.816" y="20.895">kg</tspan></text></g><g transform="translate(148.24 99.45)"><ellipse fill="#302F30" fill-rule="nonzero" cx="12.353" cy="12.325" rx="12.353" ry="12.325"/><ellipse fill="#000" fill-rule="nonzero" cx="12.353" cy="12.325" rx="7.242" ry="7.225"/><text opacity=".5" font-family="ProximaNova-Bold, Proxima Nova" font-size="6" font-weight="bold" fill="#FFF"><tspan x="6.816" y="13.895">1 </tspan> <tspan x="6.816" y="20.895">kg</tspan></text></g><mask id="b" fill="#fff"><use xlink:href="#a"/></mask><g mask="url(#b)"><path d="M85.885 33.527c-3.075-3.657-5.156-8.139-4.808-13.16 1.002-14.47 20.882-11.286 24.749-3.984 3.867 7.303 3.407 25.827-1.59 27.132-1.994.52-6.24-.755-10.561-3.393l2.712 19.441H80.371l5.514-26.036z" fill="#D4A181"/><path d="M90.868 25.668a3.182 3.182 0 0 0-1.821-.586c-1.843 0-3.337 1.665-3.337 3.38 0 1.785.832 3.166 2.02 3.751-.635 1.257-1.273 2.169-2.02 2.335-2.884-.296-6.673-7.559-6.673-13.522 0-6.528 5.126-12.17 14.681-12.17 8.588 0 11.844 3.587 12.012 6.76-3.68 1.026-10.11 1.42-19.353 1.353v.676l8.008.676 1.335 4.057c-2.123-.16-3.64 1.315-4.852 3.29z" fill="#191847"/><path fill="#997659" d="M76.601 114.94l49.949 83.811 37.447 70.856h8.066L109.32 114.94z"/><path d="M158.986 266.416c-.696 1.874-1.044 3.287-1.044 4.237 0 1.205.203 2.963.61 5.275h38.155c.992-3.238.42-4.986-1.717-5.244-2.136-.258-3.91-.491-5.324-.7l-17.63-7.763a.792.792 0 0 0-1.05.42l-1.095 2.621c-1.978.912-3.585 1.367-4.821 1.367-.966 0-2.285-.37-3.958-1.11a1.584 1.584 0 0 0-2.126.897z" fill="#E4E4E4"/><path d="M153.597 258.261l15.555-4.723c-6.815-20.447-15.168-42.95-25.058-67.506-9.89-24.556-20.513-48.254-31.866-71.092H68.295c12.623 28.89 26.005 55.14 40.146 78.75 14.14 23.61 29.193 45.134 45.156 64.571z" fill="#C5CFD6"/><path d="M73.318 114.94c-4.714 29.452-13.806 67.08-14.664 68.241-.572.774-21.167 7.7-61.783 20.779l1.742 7.138c48.435-7.013 73.956-12.455 76.564-16.325 3.91-5.804 23.438-51.657 31.001-79.833h-32.86z" fill="#B28B67"/><path d="M11.148 197.789l3.07 11.497c36.226 3.19 58.423.885 66.59-6.912 8.167-7.798 17.475-36.942 27.924-87.434H66.839c-6.62 41.346-10.32 62.887-11.103 64.622-.782 1.736-15.645 7.812-44.588 18.227z" fill="#AFB9C5"/><path d="M-1.245 200.989c-1.967-.36-3.418-.458-4.354-.293-1.187.21-2.883.715-5.09 1.517l6.626 37.576c3.361.414 4.983-.453 4.867-2.602a213.788 213.788 0 0 1-.236-5.364l4.584-18.712a.792.792 0 0 0-.595-.96l-2.772-.623c-1.241-1.79-1.97-3.293-2.184-4.51-.168-.952-.032-2.315.407-4.091a1.584 1.584 0 0 0-1.253-1.938z" fill="#E4E4E4"/><path d="M132.48 45.943l25.436-7.672c4.745-3.712 9.22-6.425 13.427-8.141 1.224-.231 3.249-.097.718 2.788-2.53 2.884-5.064 6.033-4.341 7.242.722 1.21 3.355.298 4.117 2.214.508 1.278-3.854 2.192-13.086 2.745l-19.776 11.694-6.494-10.87zm-2.247 45.06l21.406 15.794c5.805 1.574 10.656 3.532 14.55 5.875.921.842 2.033 2.548-1.783 2.253-3.816-.294-7.843-.432-8.37.876-.526 1.307 1.783 2.871.719 4.636-.71 1.176-4.062-1.773-10.057-8.85l-21.197-8.831 4.732-11.753z" fill="#D4A181"/><path d="M96.985 48.469c11.657 21.84 28.513 38.58 52.95 55.984l-9.253 10.483c-27.285-10.189-41.685-16.336-48.757-36.97-1.774-5.178-3.015-21.686-4.079-30.372l9.14.875z" fill="#DB2721"/><path d="M64.398 121.231h51.671C104.365 85.364 98.386 60.747 98.132 47.38c-.013-.682-1.265-1.883-1.82-1.725-4.052 1.15-8.388.72-13.009-1.29-12.25 19.795-16.486 44.167-18.905 76.866z" fill="#F2F2F2"/><path d="M87.712 44.397c14.812.122 38.842 2.84 66.556-6.1l2.736 13.736c-20.946 13.536-42.155 24.022-60.74 22.533 8.07 34.783 7.698 63.257-10.119 63.257h-27.55c-4.376-29.548 7.124-70.517 17.785-91.182.408-.789 1.274-2.276 3.316-2.276h8.006l.01.032z" fill="#FF4133"/></g><g transform="translate(151.647 106.25)"><ellipse fill="#606060" fill-rule="nonzero" cx="12.353" cy="12.325" rx="12.353" ry="12.325"/><ellipse fill="#302F30" fill-rule="nonzero" cx="12.353" cy="12.325" rx="7.242" ry="7.225"/><text opacity=".5" transform="rotate(25 12.353 14.895)" font-family="ProximaNova-Bold, Proxima Nova" font-size="6" font-weight="bold" fill="#FFF"><tspan x="7.668" y="13.895">1 </tspan> <tspan x="7.668" y="20.895">kg</tspan></text></g><g transform="translate(159.315 27.2)"><ellipse fill="#606060" fill-rule="nonzero" cx="12.353" cy="12.325" rx="12.353" ry="12.325"/><ellipse fill="#302F30" fill-rule="nonzero" cx="12.353" cy="12.325" rx="7.242" ry="7.225"/><text opacity=".5" transform="rotate(-28 12.353 14.895)" font-family="ProximaNova-Bold, Proxima Nova" font-size="6" font-weight="bold" fill="#FFF"><tspan x="7.668" y="13.895">1 </tspan> <tspan x="7.668" y="20.895">kg</tspan></text></g></g></svg>