<svg width="143" height="172" xmlns="http://www.w3.org/2000/svg" xmlns:xlink="http://www.w3.org/1999/xlink"><defs><path d="M99.67 179.884c32.646 0 60.163-21.96 68.583-51.913 1.728-6.143 28.512-26.4 28.512-33.095 0-39.34-57.753-91.283-97.094-91.283-11.49 0-46.243-10.65-61.036 9.016-35.863 47.676-50.15 155.294-25.611 167.275 20.702 10.108 34.283-22.786 37.045-20.107 12.825 12.446 30.319 20.107 49.602 20.107z" id="a"/></defs><g transform="translate(-28 -8)" fill="none" fill-rule="evenodd"><ellipse fill-opacity=".25" fill="#38B3BA" cx="99.671" cy="108.653" rx="71.234" ry="71.231"/><mask id="b" fill="#fff"><use xlink:href="#a"/></mask><g mask="url(#b)"><path d="M91.917 44.656c-3.01-3.917-4.737-10.2-3.755-19.912 2.78-27.506 22.07-11.772 26.156-4.155 4.087 7.618 6.635 24.943-1.68 28.302-2.727 1.102-6.596 1.842-10.468 1.37l2.173 15.37H87.416l4.5-20.975z" fill="#D4A181"/><path d="M115.916 24.01c-.167-.988-.577-2.084-.908-3.018-.426-1.205-1.071-2.29-1.781-3.314a25.043 25.043 0 0 0-4.71-5.11c-3.234-2.638-7.35-4.16-11.398-3.665a11.7 11.7 0 0 0-5.716 2.326c-1.526 1.173-2.993 2.898-4.969 3.022-2.15.135-4.12-1.762-5.844-2.934-1.943-1.32-4.011-2.283-6.283-2.657-3.805-.627-7.38.659-10.003 3.781-2.791 3.323-4.82 8.195-2.987 12.598.34.818.779 1.508 1.408 2.08.577.524 1.458 1.082 1.692 1.92.248.89-.494 2.04-.782 2.843-.412 1.15-.75 2.36-.63 3.61.197 2.056 1.489 4.018 2.853 5.368 1.387 1.375 3.095 2.163 4.92 2.526 1.218.243 2.463.377 3.701.286.615-.045 1.157-.216 1.752-.352.58-.132.903.022 1.394.34 2.283 1.475 4.737 2.046 7.372 1.826 2.224-.185 4.788-.724 6.602-2.248 2.015-1.692 1.975-4.026 1.501-6.52.502.25 1.892.404 1.062-.589-.33-.393-.95-.553-1.373-.784-.492-.269-.99-.617-1.372-1.056-1.541-1.773.015-5.38 1.952-5.975 2.878-.883 3.522 3.187 5.577 4.24 1.181.605 2.417-.222 3.302-1.067 1.185-1.132 1.993-2.631 2.69-4.157.575-1.256 1.11-2.53 1.696-3.78.273-.584 1.22-2.235.744-2.895 2.062-.41 4.358.446 6.133 1.569.734.464 1.293.976 1.684 1.796.084.176.267.698.496.72.427.04.267-.482.225-.73" fill="#191847"/><path d="M61.892 193.634c16.924 4.751 31.525 7.127 43.804 7.127 12.28 0 23.684-3.659 34.216-10.976-16.562-4.878-30.2-7.316-40.918-7.316-10.717 0-23.084 3.721-37.102 11.165z" fill="#1F28CF"/><path d="M120.347 207.61a4.012 4.012 0 0 1-.41-.804c-2.263-6.005-38.497-70.793-42.107-82.638h40.795c2.745 9.006 15.098 65.522 16.836 76.798 5.486 17.786 16.78 75.39 18.221 79.38 1.517 4.198-7.017 8.571-9.291 3.41-3.618-8.212-12.24-30.934-16.079-44.808-3.599-13.007-6.53-24.709-7.965-31.337z" fill="#997659"/><path d="M86.97 215.52c-16.565 4.204-77.16 11.802-81.318 12.994-4.277 1.226-8.028-7.625-2.74-9.543 8.412-3.05 31.594-10.099 45.649-12.975 11.305-2.314 21.62-4.202 28.547-5.307-.587-19.53-3.27-66.398-1.511-76.52h36.096c-1.686 9.706-15.937 80.533-18.586 87.623-.84 2.53-3.348 3.65-6.136 3.729z" fill="#B28B67"/><path d="M3.479 216.597c-2.082-.393-3.615-.503-4.598-.33-1.23.217-2.99.743-5.277 1.58l6.95 39.409c3.487.44 5.168-.465 5.042-2.718a229 229 0 0 1-.255-5.625l4.729-19.651a.792.792 0 0 0-.594-.958l-2.913-.666c-1.291-1.879-2.05-3.456-2.275-4.733-.178-1.013-.033-2.47.435-4.373a1.584 1.584 0 0 0-1.244-1.935zm138.267 66.28c-.75 1.982-1.124 3.472-1.124 4.47 0 1.25.213 3.074.639 5.471h40.017c1.04-3.358.44-5.17-1.8-5.438-2.241-.268-4.102-.51-5.584-.725l-18.532-8.07a.792.792 0 0 0-1.046.418l-1.162 2.754c-2.074.945-3.76 1.418-5.057 1.418-1.028 0-2.438-.396-4.23-1.187a1.584 1.584 0 0 0-2.121.889z" fill="#E4E4E4"/><path d="M75.713 124.168c15.907-4.568 30.957-4.568 45.151 0 4.938 22.618 16.938 31.595 19.048 66.272-23.986 11.964-53.616-8.532-78.308 3.135-7.055-16.32 2.822-55.622 14.11-69.407z" fill="#191847"/><path d="M85.787 51.888c.165-.537.332-1.074.502-1.613l.626.294c.098-.1.196-.199.295-.294l19.742 3.052c0 11.101 5.594 16.948 11.182 25.885 8.687 13.892 21.981 26.275 17.663 56.693-3.125 22.015-26.449 24.294-69.97 6.836 0-10.016 8.232-20.086 8.495-32.265.25-11.594 2.418-46.722 11.465-58.588z" fill="#FFA511"/><path d="M106.945 122.275c10.518 11.884 16.866 16.906 18.228 18.033 2.456 2.03-.374 8.213-6.145 9.368-2.756.551-7.021-5.132-8.778-7.145-.691-.792-4.121-3.397-10.29-7.816 1.32-6.813 6.593-10.156 6.985-12.44z" fill="#D4A181"/><path d="M104.806 138.776l-.495 1.772C73.422 118.96 73.407 92.8 82.594 63.476c-6.924 28.868-4.104 53.216 22.212 75.3z" fill-opacity=".2" fill="#000" opacity=".4"/><path d="M98.617 78.045c.901 9.088 1.998 15.66 3.291 19.714 1.293 4.055 3.608 9.614 6.944 16.677-.167-6.315-.803-11.127-1.909-14.436-1.106-3.309-3.881-10.627-8.326-21.955z" fill="#EB980F" fill-rule="nonzero"/></g></g></svg>