<svg width="149" height="165" xmlns="http://www.w3.org/2000/svg" xmlns:xlink="http://www.w3.org/1999/xlink"><defs><path d="M92.967 171.975c24.221 0 45.55-12.368 58.005-31.125 1.994-3.003 20.365.612 23.972-2.172 3.514-2.71 0-12.792-15.012-17.338-18.144-5.494 27.838-25.75 27.838-32.28 0-38.372-56.39-89.037-94.803-89.037S-25.48 155.468 8.365 171.975c20.214 9.859 29.82 5.218 32.517 7.831 6.464 6.265 17.795-16.155 26.3-12.762 7.974 3.181 16.675 4.93 25.785 4.93z" id="a"/></defs><g transform="translate(-23 -7)" fill="none" fill-rule="evenodd"><ellipse fill-opacity=".25" fill="#38B3BA" cx="92.967" cy="102.497" rx="69.553" ry="69.478"/><mask id="b" fill="#fff"><use xlink:href="#a"/></mask><g mask="url(#b)"><path d="M93.79 52.1c-7.454-1.129-13.167-7.564-13.167-15.334V23.28c0-8.566 6.944-15.51 15.51-15.51 6.315 0 11.749 3.774 14.168 9.19.214.456.43 1.025.652 1.721 2.396 7.533 6.238 30.26 2.838 33.611h-19.99a54.999 54.999 0 0 1-.01-.191z" fill="#191847"/><path d="M88.386 34.536c-3.176-3.76-5.326-8.37-4.967-13.536 1.035-14.882 21.57-11.608 25.565-4.097 3.995 7.512 3.52 26.565-1.643 27.907-2.058.535-6.444-.776-10.908-3.49l2.802 19.997H82.69l5.695-26.78z" fill="#D4A181"/><path d="M92.858 32.022c.762 8.26.457 17.693-1.815 19.932h-19.99c-1.114-19.522 9.65-11.962 9.65-30.343.672-.662 1.306-1.317 1.933-1.881l-.022-.541c3.462-7.15 7.853-10.724 13.175-10.724 7.982 0 10.502 3.747 12.647 6.929-1.604 5.553-7.83 6.376-13.361 9.837a3.755 3.755 0 0 0-2.39-.854c-2.093 0-3.79 1.712-3.79 3.824 0 2.113 1.697 3.825 3.79 3.825.059 0 .116-.001.173-.004z" fill="#191847"/><path fill="#997659" d="M77.153 117.76l25.922 85.063 12.557 72.34h9.846l-13.269-157.402z"/><path d="M67.88 117.76c1.76 46.704-.312 70.795-.706 75.038-.394 4.244-5.79 31.757-18.564 83.79l10.491-3.617c20.189-47.722 27.068-72.523 29.384-78.79 2.315-6.266 8.465-31.74 18.45-76.42H67.88z" fill="#B28B67"/><path d="M48.623 273.165c-.724 1.967-1.086 3.446-1.086 4.44 0 1.249.208 3.072.625 5.47h39.086c1.016-3.358.43-5.17-1.759-5.439a216.47 216.47 0 0 1-5.453-.725l-18.074-8.057a.792.792 0 0 0-1.055.421l-1.13 2.739c-2.025.945-3.671 1.418-4.938 1.418-.994 0-2.354-.388-4.08-1.164a1.584 1.584 0 0 0-2.136.897zm64.751 0c-.724 1.967-1.086 3.446-1.086 4.44 0 1.249.208 3.072.625 5.47h39.086c1.016-3.358.43-5.17-1.759-5.439a216.47 216.47 0 0 1-5.454-.725l-18.073-8.057a.792.792 0 0 0-1.055.421l-1.13 2.739c-2.025.945-3.671 1.418-4.938 1.418-.994 0-2.354-.388-4.08-1.164a1.584 1.584 0 0 0-2.136.897z" fill="#E4E4E4"/><path fill="#69A1AC" d="M73.709 117.76L84.73 161.1h33.664l-5.02-43.338z"/><path d="M67.51 117.76c-3.627 10.912-4.316 25.358-2.067 43.339h34.353l9.446-43.338H67.509z" fill="#89C5CC"/><path d="M137.379 106.982l19.451 19.077c5.66 2.427 10.297 5.107 13.912 8.04.813.986 1.698 2.874-2.127 2.03-3.824-.846-7.885-1.562-8.604-.312-.72 1.25 1.399 3.167.07 4.804-.885 1.09-3.864-2.38-8.936-10.412l-20.227-11.989 6.46-11.238zm-86.339 2.69l14.35.057c-8.86 28.754-13.643 44.011-14.35 45.77-1.588 3.96 1.774 9.989 3.212 13.228-4.683 2.107-4.184-5.695-10.092-2.932-5.392 2.522-9.494 7.092-15.724 3.227-.766-.475-1.605-2.264.423-3.662 5.052-3.482 12.333-9.578 13.317-11.584 1.341-2.736 4.296-17.437 8.864-44.104z" fill="#D4A181"/><path d="M91.82 49.14l5.937-1.025c10.223 25.674 28.07 49.001 53.543 69.983l-19.248 23.51c-25.47-29.875-41.17-60.698-40.233-92.469z" fill="#191847"/><path d="M65.936 124.155h52.872c-12.249-29.942-18.374-55.378-18.374-76.308l-15.949-2.389c-12.534 20.267-16.074 45.22-18.55 78.697z" fill="#DDE3E9"/><path d="M84.147 45.47l.007-.012h1.04c1.247.043 3.144.121 5.693.233l3.854 11.073c.408 13.5 2.788 40.705 7.142 81.616h-34.66c.092 2.826.241 5.678.45 8.556h-25.77c3.854-43.722 17.932-77.548 42.232-101.478l.012.012z" fill="#2F3676"/><path d="M69.513 102.226c.987 17.613 3.456 29.755 7.41 36.426h-9.69c-.424-12.672.336-24.814 2.28-36.426z" fill-opacity=".1" fill="#000"/><path fill-opacity=".2" fill="#FFF" d="M74.938 117.252l17.09-7.988v7.988z"/></g></g></svg>